<svg width="48" height="48" viewBox="0 0 48 48" fill="none" xmlns="http://www.w3.org/2000/svg">
<path d="M33.886 24.1728C33.7719 23.6334 33.5007 23.1442 33.1096 22.7722C32.7185 22.4003 32.2267 22.164 31.7019 22.0957C30.0276 21.9062 27.5021 21.8114 24.1255 21.8114C20.7489 21.8114 18.228 21.9062 16.5629 22.0957C16.0383 22.1568 15.546 22.3911 15.1578 22.7646C14.7607 23.1373 14.4838 23.6292 14.365 24.1728C14.0853 25.8159 13.9664 27.4844 14.01 29.1526C13.9629 30.8209 14.0819 32.4898 14.365 34.1325C14.4755 34.6776 14.7508 35.1713 15.1504 35.5406C15.5366 35.9113 16.0276 36.141 16.5496 36.1951C19.0683 36.4309 21.597 36.53 24.1255 36.4922C26.654 36.5295 29.1827 36.4298 31.7013 36.1935C32.2212 36.1403 32.71 35.9108 33.0932 35.5401C33.49 35.1674 33.7666 34.6754 33.8849 34.1319C34.1646 32.4888 34.2836 30.8203 34.2399 29.1521C34.2872 27.484 34.1685 25.8153 33.886 24.1728ZM19.7849 25.6098H18.3241V33.7052H16.9593V25.6098H15.5266V24.2725H19.7849V25.6098ZM23.4707 33.7046H22.2555V32.9366C22.0944 33.1747 21.8872 33.375 21.6474 33.5245C21.4075 33.674 21.1404 33.7693 20.8632 33.8044C20.6931 33.8267 20.521 33.7863 20.3764 33.6902C20.2319 33.5941 20.124 33.4483 20.0714 33.2779C19.9857 32.9394 19.9489 32.5893 19.9621 32.2394V26.6766H21.1773V31.8554C21.1717 32.0217 21.1763 32.1883 21.1911 32.3541C21.1901 32.3937 21.1968 32.433 21.2108 32.4698C21.2249 32.5066 21.2459 32.54 21.2728 32.5679C21.2996 32.5959 21.3316 32.6178 21.3668 32.6324C21.402 32.647 21.4397 32.654 21.4776 32.6528C21.6426 32.6225 21.7986 32.5529 21.9336 32.4492C22.0685 32.3456 22.1787 32.2108 22.2555 32.0554V26.6799H23.4707V33.7052V33.7046ZM28.1116 31.5988C28.1332 32.0768 28.0919 32.5556 27.989 33.0219C27.9427 33.2512 27.8197 33.4558 27.642 33.5991C27.4644 33.7424 27.2437 33.815 27.0196 33.8038C26.7653 33.7815 26.519 33.6997 26.2992 33.5643C26.0793 33.4289 25.8915 33.2435 25.7498 33.0219V33.7046H24.5357V24.2725H25.7503V27.3599C25.8906 27.1379 26.0783 26.953 26.2986 26.8198C26.519 26.6865 26.766 26.6084 27.0201 26.5918C27.2462 26.5819 27.4682 26.6568 27.646 26.8029C27.8238 26.9491 27.9457 27.1569 27.9896 27.3887C28.0933 27.85 28.1346 28.3242 28.1121 28.7974V31.5999L28.1116 31.5988ZM32.7281 30.435H30.2808V31.6708C30.2808 32.3251 30.4901 32.6523 30.9086 32.6523C31.0459 32.6591 31.1802 32.6091 31.2824 32.5131C31.3847 32.4171 31.4465 32.2829 31.4546 32.1396C31.4809 31.8512 31.4901 31.5614 31.4822 31.2718H32.7244V31.4569C32.7327 31.7323 32.7237 32.0079 32.6973 32.2821C32.6629 32.5586 32.5646 32.8222 32.4108 33.0502C32.2484 33.2982 32.0271 33.4981 31.7687 33.6303C31.5103 33.7625 31.2234 33.8225 30.9362 33.8044C30.6526 33.8171 30.3703 33.7577 30.1136 33.6314C29.8568 33.505 29.6332 33.3155 29.4621 33.079C29.1613 32.5887 29.0223 32.0091 29.0662 31.4286V28.9675C29.0231 28.3891 29.1569 27.8112 29.4483 27.3172C29.6235 27.0907 29.845 26.9079 30.0965 26.7824C30.3481 26.6569 30.6234 26.5917 30.9022 26.5917C31.181 26.5917 31.4563 26.6569 31.7079 26.7824C31.9595 26.9079 32.181 27.0907 32.3561 27.3172C32.6384 27.8147 32.7671 28.3909 32.7249 28.9675V30.4333L32.7281 30.435ZM26.3642 27.7439C26.247 27.7505 26.1322 27.7816 26.0266 27.8354C25.9211 27.8892 25.8269 27.9646 25.7498 28.057V32.3392C25.8269 32.4316 25.921 32.507 26.0266 32.5608C26.1321 32.6146 26.247 32.6457 26.3642 32.6523C26.718 32.6523 26.8949 32.3345 26.8949 31.6991V28.6971C26.8963 28.0616 26.7194 27.7439 26.3642 27.7439ZM30.8964 27.7439C30.4867 27.7439 30.2821 28.0663 30.2824 28.711V29.3654H31.5108V28.7115C31.5108 28.0664 31.306 27.7439 30.8964 27.7439ZM18.9932 16.6753V20.5319H20.358V16.6753L22.0099 11H20.6175L19.6894 14.7407L18.7205 11H17.2734C17.5281 11.7969 17.8239 12.6836 18.1606 13.6601C18.5007 14.6452 18.7788 15.6524 18.9932 16.6753ZM23.8389 20.6305C24.1189 20.6452 24.398 20.5866 24.6508 20.4599C24.9035 20.3332 25.1219 20.1425 25.286 19.9051C25.5794 19.4015 25.7131 18.8141 25.668 18.2265V15.7366C25.7117 15.1542 25.578 14.5723 25.286 14.074C25.1221 13.8362 24.9038 13.6451 24.6511 13.518C24.3983 13.3909 24.1191 13.3319 23.8389 13.3464C23.5614 13.335 23.2855 13.3952 23.0356 13.5217C22.7857 13.6483 22.5695 13.8372 22.4062 14.0718C22.1143 14.5701 21.9805 15.152 22.0242 15.7343V18.2243C21.9817 18.8116 22.1152 19.3983 22.4062 19.9029C22.5693 20.1379 22.7854 20.3272 23.0353 20.4542C23.2852 20.5811 23.5613 20.6417 23.8389 20.6305ZM23.2521 15.48C23.2521 14.8257 23.4477 14.4985 23.8389 14.4985C24.2302 14.4985 24.4258 14.8257 24.4258 15.48V18.4675C24.4258 19.1326 24.2302 19.4651 23.8389 19.4651C23.4477 19.4651 23.2521 19.1326 23.2521 18.4675V15.48ZM27.5932 20.6305C27.8746 20.598 28.146 20.5024 28.3887 20.3501C28.6314 20.1978 28.8398 19.9925 28.9994 19.7482V20.5319H30.2416V13.4317H28.9988V18.8521C28.9233 19.0099 28.8137 19.1471 28.6785 19.2529C28.5434 19.3588 28.3866 19.4302 28.2204 19.4617C28.1816 19.462 28.1431 19.454 28.1073 19.4382C28.0715 19.4224 28.0392 19.3991 28.0124 19.3698C27.9856 19.3404 27.9648 19.3057 27.9513 19.2677C27.9377 19.2296 27.9318 19.1891 27.9338 19.1486C27.9185 18.9829 27.9139 18.8163 27.9201 18.6499V13.4317H26.6784V19.0356C26.6642 19.3949 26.7011 19.7543 26.7877 20.1024C26.8443 20.2729 26.9549 20.4182 27.1012 20.5143C27.2476 20.6103 27.421 20.6513 27.5927 20.6305H27.5932Z" fill="#808080"/>
</svg>
