<svg width="48" height="48" viewBox="0 0 48 48" fill="none" xmlns="http://www.w3.org/2000/svg">
<path d="M39 14.8505C37.8742 15.3361 36.6807 15.6523 35.4593 15.7885C36.7535 15.0484 37.7182 13.8569 38.1626 12.45C36.9578 13.1571 35.6369 13.6521 34.2593 13.9125C33.6946 13.3207 33.0149 12.8466 32.2605 12.5182C31.5062 12.1899 30.6925 12.0139 29.8678 12.0008C29.0431 11.9877 28.2241 12.1377 27.4594 12.4419C26.6947 12.7461 25.9998 13.1984 25.4159 13.7719C24.8346 14.3272 24.3751 14.9938 24.0656 15.7306C23.7562 16.4675 23.6033 17.2589 23.6165 18.0561C23.6193 18.522 23.6714 18.9863 23.7717 19.4416C21.3043 19.3305 18.8904 18.6953 16.6957 17.5798C14.5297 16.4906 12.6192 14.9674 11.087 13.108C10.5319 14.0333 10.2425 15.0896 10.2496 16.1641C10.242 17.1738 10.4978 18.1686 10.9924 19.0532C11.4699 19.9217 12.1562 20.6619 12.9913 21.2091C12.0155 21.1751 11.0622 20.9109 10.2117 20.4387V20.5138C10.1922 21.9217 10.6889 23.2894 11.6107 24.366C12.5029 25.4483 13.7527 26.1881 15.1422 26.4564C14.614 26.5932 14.0702 26.6624 13.5241 26.6625C13.1369 26.6592 12.7504 26.6277 12.3678 26.5681C12.7627 27.7703 13.529 28.8212 14.5597 29.574C15.5904 30.3269 16.8342 30.7441 18.1174 30.7676C15.9511 32.4696 13.2545 33.3835 10.483 33.355C9.98768 33.358 9.49254 33.3333 9 33.2812C11.8079 35.0795 15.0912 36.0248 18.4409 35.9995C20.5343 36.0143 22.6143 35.6689 24.587 34.9787C26.3795 34.3672 28.0441 33.4395 29.4991 32.2411C30.8564 31.0984 32.0394 29.7693 33.0117 28.2945C33.9722 26.8558 34.7129 25.286 35.2102 23.6354C35.6872 22.0557 35.9312 20.4168 35.9348 18.7688C35.9348 18.4187 35.9285 18.1561 35.9159 17.981C37.1199 17.1207 38.1634 16.0615 39 14.8505Z" fill="#808080"/>
</svg>
