<svg width="160" height="90" viewBox="0 0 160 90" fill="none" xmlns="http://www.w3.org/2000/svg">
<path d="M6.35388 46.075C6.19763 45.8842 6.05746 45.7104 5.9334 45.5546C6.08294 45.386 6.25391 45.1955 6.44607 44.9845C7.31029 44.0352 8.60244 42.6718 10.3 41.032C13.6962 37.7513 18.7082 33.3712 25.1555 28.9907C38.0563 20.2256 56.6409 11.5 79.5 11.5C103.873 11.5 122.454 20.2359 134.953 28.9791C141.204 33.3519 145.928 37.723 149.085 40.9946C150.662 42.6299 151.847 43.989 152.633 44.934C152.84 45.1823 153.019 45.402 153.17 45.5905C153.057 45.7617 152.926 45.9572 152.776 46.1751C152.132 47.1106 151.145 48.4597 149.786 50.085C147.07 53.3361 142.873 57.6876 136.983 62.044C125.218 70.7453 106.651 79.5 79.5 79.5C54.8747 79.5 36.295 70.7624 23.8626 62.0229C17.6442 57.6515 12.9679 53.282 9.85147 50.012C8.2937 48.3775 7.12711 47.0192 6.35388 46.075Z" stroke="white" stroke-width="3"/>
<circle cx="79.5" cy="37.5" r="11.5" fill="#77B900" fill-opacity="0.75" stroke="white" stroke-width="2"/>
<circle cx="70.5" cy="52.5" r="11.5" fill="#77B900" fill-opacity="0.5" stroke="white" stroke-width="2"/>
<circle cx="88.5" cy="52.5" r="11.5" fill="white" fill-opacity="0.45" stroke="white" stroke-width="2"/>
</svg>
