<svg width="160" height="90" viewBox="0 0 160 90" fill="none" xmlns="http://www.w3.org/2000/svg">
<path d="M6.35388 46.075C6.19763 45.8842 6.05746 45.7104 5.9334 45.5546C6.08294 45.386 6.25391 45.1955 6.44607 44.9845C7.31029 44.0352 8.60244 42.6718 10.3 41.032C13.6962 37.7513 18.7082 33.3712 25.1555 28.9907C38.0563 20.2256 56.6409 11.5 79.5 11.5C103.873 11.5 122.454 20.2359 134.953 28.9791C141.204 33.3519 145.928 37.723 149.085 40.9946C150.662 42.6299 151.847 43.989 152.633 44.934C152.84 45.1823 153.019 45.402 153.17 45.5905C153.057 45.7617 152.926 45.9572 152.776 46.1751C152.132 47.1106 151.145 48.4597 149.786 50.085C147.07 53.3361 142.873 57.6876 136.983 62.044C125.218 70.7453 106.651 79.5 79.5 79.5C54.8747 79.5 36.295 70.7624 23.8626 62.0229C17.6442 57.6515 12.9679 53.282 9.85147 50.012C8.2937 48.3775 7.12711 47.0192 6.35388 46.075Z" stroke="white" stroke-width="3"/>
<path d="M115.967 41.7183C114.915 29.459 105.088 19.7243 92.7893 18.7945C100.688 23.0493 106.058 31.3922 106.058 40.9915C106.058 41.2377 106.027 41.4745 106.02 41.7183H97.9286L110.419 57.7938L123.91 41.7183H115.967Z" fill="white"/>
<path d="M54.6808 51.0085C54.6808 50.7355 54.7112 50.4707 54.7205 50.2012H63.0713L50.5823 34.1257L37.0898 50.2012H44.7653C45.7827 62.4978 55.6235 72.2757 67.947 73.2067C60.0498 68.9495 54.6808 60.6078 54.6808 51.0085Z" fill="white"/>
<path d="M88 30H71V47H76L74.5 65.25L90 44H78L88 30Z" fill="#77B900"/>
</svg>
