<svg width="48" height="48" viewBox="0 0 48 48" fill="none" xmlns="http://www.w3.org/2000/svg">
<path d="M18.1978 36.4825V33.433H12.015C12.0089 33.3055 12 33.2062 12 33.1075C12 27.3708 12.0009 21.6341 12.0028 15.8973C12.0036 15.7278 12.0311 15.5594 12.0842 15.3983C12.5396 14.0161 13.0071 12.6355 13.4614 11.2499C13.467 11.2119 13.48 11.1753 13.4998 11.1423C13.5195 11.1093 13.5456 11.0805 13.5765 11.0576C13.6073 11.0347 13.6424 11.0181 13.6797 11.0088C13.717 10.9994 13.7557 10.9975 13.7937 11.0032C21.3598 11.0091 28.9256 11.0108 36.4913 11.0082H36.745V11.3292C36.745 16.2734 36.7465 21.2177 36.7495 26.1619C36.7533 26.2542 36.7368 26.3463 36.7012 26.4315C36.6655 26.5168 36.6117 26.5932 36.5434 26.6554C34.3486 28.8395 32.1573 31.028 29.9695 33.2206C29.9072 33.289 29.8307 33.3428 29.7453 33.3782C29.6599 33.4135 29.5677 33.4296 29.4754 33.4252C28.1458 33.4158 26.8119 33.4252 25.4802 33.4152C25.365 33.4081 25.2497 33.4268 25.1426 33.47C25.0356 33.5132 24.9395 33.5797 24.8614 33.6647C23.9828 34.5618 23.0915 35.4462 22.1974 36.3261C22.1093 36.4185 21.9917 36.4774 21.865 36.4924C20.6751 36.5041 19.483 36.4991 18.2947 36.498C18.262 36.4952 18.2296 36.49 18.1978 36.4825ZM15.8434 13.3031V29.5851H21.2723V32.6712C21.3565 32.5913 21.403 32.5486 21.4484 32.5048C22.3647 31.5922 23.2826 30.6812 24.1933 29.7631C24.2493 29.7019 24.318 29.6538 24.3946 29.6221C24.4711 29.5904 24.5537 29.5759 24.6365 29.5795C26.5347 29.5858 28.4332 29.5845 30.3318 29.5757C30.485 29.5691 30.6309 29.5086 30.7439 29.4049C31.9272 28.2405 33.0977 27.0596 34.2782 25.8908C34.3388 25.8345 34.3864 25.7656 34.4175 25.689C34.4486 25.6124 34.4625 25.5298 34.4583 25.4472C34.4572 21.4929 34.4566 17.5391 34.4566 13.5858V13.3031H15.8434ZM24.3639 17.9937V24.8756H22.0672V17.9937H24.3628H24.3639ZM30.539 24.8844H28.2843V17.9932H30.539V24.8844Z" fill="#808080"/>
</svg>
